<svg width="26" height="25" viewBox="0 0 26 25" fill="none" xmlns="http://www.w3.org/2000/svg">
<path d="M21.7479 19.5487C21.5644 19.5033 21.3785 19.4681 21.1992 19.4112C20.1893 19.0913 19.5086 18.1957 19.4984 17.0839C19.4796 14.9088 19.4742 12.7338 19.5013 10.5617C19.5175 9.25695 20.4072 8.31849 21.6965 8.1496C21.7443 8.14352 21.7922 8.12817 21.9198 8.09778C21.7727 7.53419 21.6853 6.96581 21.478 6.4454C20.2949 3.47903 18.0942 1.84295 14.9175 1.64464C13.4665 1.55412 11.9982 1.58419 10.5475 1.68878C7.3577 1.91812 4.47635 4.77701 4.15832 7.92954C4.15322 7.97912 4.15322 8.02934 4.14939 8.1109C4.29931 8.13681 4.44509 8.15568 4.58767 8.18734C5.71271 8.43875 6.49645 9.37466 6.50889 10.5744C6.53122 12.7357 6.53792 14.8977 6.50889 17.0586C6.48497 18.815 4.99469 19.8507 3.17746 19.4256C1.46645 19.0241 0.179044 17.6273 0.0632541 15.8668C-0.0224465 14.497 -0.0210613 13.1231 0.067401 11.7534C0.15544 10.3486 0.928647 9.30877 2.15002 8.62811C2.38352 8.49793 2.46645 8.35175 2.49037 8.1013C2.92578 3.51837 6.71176 0.0315938 11.3028 0.00248673C12.7727 -0.00678917 14.2502 -0.0416535 15.7115 0.083731C19.499 0.408707 22.8394 3.5833 23.4113 7.36947C23.5195 8.08467 23.7211 8.5715 24.3766 8.98731C25.337 9.59504 25.8873 10.5866 25.9424 11.7381C26.0085 13.1192 26.0292 14.5106 25.9424 15.8895C25.8506 17.3391 25.0448 18.3876 23.7785 19.09C23.6381 19.1678 23.5 19.3459 23.4643 19.502C23.0097 21.4893 21.4499 22.7646 19.3976 22.7863C18.4209 22.7975 17.4442 22.795 16.4678 22.7841C16.2298 22.7815 16.0885 22.8321 15.9692 23.0697C15.4489 24.1061 14.3392 24.605 13.2237 24.3341C12.6961 24.2041 12.2275 23.8997 11.8935 23.47C11.5595 23.0403 11.3795 22.5104 11.3826 21.9656C11.3864 20.8326 12.1481 19.8583 13.2285 19.6015C14.3497 19.3351 15.4525 19.8344 15.9718 20.8704C16.0802 21.0869 16.2005 21.1563 16.4336 21.1534C17.4987 21.1397 18.5648 21.1624 19.6295 21.1365C20.6081 21.1099 21.4687 20.4466 21.7479 19.5487ZM4.88113 13.8808C4.88113 12.8387 4.884 11.7969 4.88113 10.7548C4.87826 10.0016 4.47922 9.66573 3.73886 9.7828C2.52387 9.97471 1.67474 10.9324 1.65401 12.1757C1.63551 13.2809 1.63551 14.3862 1.65401 15.4916C1.67538 16.7496 2.54333 17.7022 3.78703 17.8739C4.4958 17.9715 4.87667 17.6478 4.88018 16.9304C4.88496 15.9138 4.88113 14.8973 4.88113 13.8808ZM21.1297 13.8296C21.1297 14.8967 21.1227 15.9641 21.1325 17.0314C21.1376 17.595 21.5077 17.927 22.0576 17.8951C23.3271 17.8208 24.3223 16.82 24.3511 15.5434C24.3755 14.3879 24.3747 13.2318 24.3485 12.0752C24.3192 10.8719 23.3635 9.88611 22.1699 9.77064C21.5026 9.70667 21.1335 10.031 21.1297 10.7046C21.1236 11.7458 21.129 12.7875 21.1297 13.83V13.8296ZM14.6164 21.9544C14.6151 21.7435 14.5313 21.5415 14.383 21.392C14.2347 21.2424 14.0337 21.1572 13.8234 21.1547C13.6109 21.1566 13.4075 21.242 13.2572 21.3927C13.1068 21.5434 13.0215 21.7473 13.0196 21.9604C13.0177 22.1736 13.0993 22.3789 13.2469 22.5323C13.3945 22.6857 13.5963 22.7749 13.8088 22.7806C13.9163 22.7809 14.0228 22.7596 14.122 22.718C14.2212 22.6764 14.3111 22.6153 14.3864 22.5383C14.4616 22.4613 14.5208 22.37 14.5603 22.2697C14.5998 22.1694 14.6189 22.0622 14.6164 21.9544Z" fill="white"/>
</svg>
